 <svg version="1.0" xmlns="http://www.w3.org/2000/svg" width="700.000000pt" height="231.000000pt" viewBox="0 0 700.000000 231.000000" preserveAspectRatio="xMidYMid meet">
<metadata>
Created by potrace 1.12, written by Peter Selinger 2001-2015
</metadata>
<g transform="translate(0.000000,231.000000) scale(0.100000,-0.100000)" fill="#000000" stroke="none">
<path d="M4542 2107 c-7 -8 -13 -72 -14 -158 l-3 -144 -67 -7 c-122 -12 -240
-96 -288 -206 -11 -25 -20 -53 -20 -63 0 -10 -4 -21 -10 -24 -6 -4 -10 -175
-10 -479 0 -453 1 -474 19 -490 16 -15 38 -17 133 -16 62 1 119 1 126 1 7 -1
12 -16 12 -39 0 -21 5 -43 12 -50 9 -9 181 -12 715 -12 l702 0 12 21 c6 12 9
29 6 39 -10 38 6 43 139 44 l129 1 0 515 0 515 -187 3 c-140 2 -188 6 -189 15
0 6 0 126 1 265 1 185 -2 257 -10 267 -18 21 -1191 22 -1208 2z m1133 -79 c3
-13 4 -122 3 -243 l-3 -220 -352 -3 c-279 -2 -353 0 -354 10 -1 7 -2 60 -3
118 l-1 105 -177 3 -178 2 0 119 c0 65 3 121 7 124 3 4 242 7 529 7 l524 0 5
-22z m-800 -308 c3 -5 9 -55 12 -110 4 -71 10 -104 21 -113 12 -9 140 -13 546
-14 292 -2 545 -3 561 -3 50 0 57 -11 58 -84 0 -36 -4 -71 -9 -76 -16 -16
-1823 -15 -1838 0 -17 18 -11 187 8 234 25 57 102 128 166 153 50 20 75 22
262 22 123 1 209 -3 213 -9z m1190 -500 c9 -15 7 -602 -3 -612 -5 -5 -49 -8
-98 -6 l-89 3 -3 55 c-4 71 -23 94 -74 86 -62 -10 -94 19 -48 44 22 12 26 40
8 58 -17 17 -1209 17 -1226 0 -18 -18 -15 -41 9 -61 17 -15 18 -21 8 -33 -10
-12 -24 -14 -59 -9 -59 8 -68 -2 -72 -80 l-3 -60 -100 0 -100 0 -3 300 c-1
165 0 305 3 312 3 10 193 13 924 13 574 0 922 -4 926 -10z m-417 -517 c2 -46
-1 -73 -8 -73 -5 0 -228 0 -495 0 -267 0 -489 0 -495 0 -11 0 -14 133 -3 143
3 4 230 6 502 5 l496 -3 3 -72z m-1088 -53 c6 -11 8 -31 4 -44 -4 -19 0 -28
18 -40 22 -14 86 -16 579 -14 l554 3 3 45 c4 51 16 70 44 70 26 0 34 -28 28
-107 l-5 -68 -634 -3 c-404 -1 -638 1 -645 8 -10 10 -12 143 -1 159 10 18 44
12 55 -9z"></path>
<path d="M4425 1620 c-21 -23 -13 -38 24 -42 31 -4 50 24 32 46 -18 21 -34 20
-56 -4z"></path>
<path d="M4588 1629 c-26 -15 -22 -38 9 -50 34 -13 64 11 47 39 -14 21 -33 25
-56 11z"></path>
<path d="M4742 1628 c-16 -16 -15 -33 2 -47 22 -18 58 4 54 32 -3 25 -37 34
-56 15z"></path>
<path d="M4295 1150 c-13 -14 -14 -23 -7 -37 9 -15 24 -18 101 -18 76 -1 94 2
108 17 15 17 15 19 -1 37 -26 28 -176 29 -201 1z"></path>
<path d="M5652 1158 c-26 -26 -6 -68 33 -68 12 0 30 9 40 20 17 19 17 21 0 40
-20 22 -55 26 -73 8z"></path>
<path d="M5806 1151 c-38 -42 -6 -61 102 -61 66 0 82 3 97 20 17 19 17 21 0
40 -15 16 -30 19 -101 19 -65 -1 -86 -5 -98 -18z"></path>
<path d="M4376 1041 c-91 -7 -114 -24 -82 -60 16 -18 31 -21 101 -21 67 0 85
3 98 18 10 10 17 23 17 29 0 10 -45 45 -52 41 -2 -1 -39 -4 -82 -7z"></path>
<path d="M1915 1670 c-3 -5 -14 -10 -24 -10 -31 0 -87 -64 -94 -107 -17 -99 0
-158 74 -265 11 -14 19 -29 19 -33 0 -4 8 -19 19 -33 10 -15 33 -54 51 -87 18
-33 42 -76 53 -95 66 -114 69 -125 65 -226 l-3 -96 -39 -34 c-33 -28 -47 -34
-86 -34 -84 0 -125 51 -121 152 2 59 -9 78 -34 58 -18 -15 -19 -74 -4 -136 8
-32 23 -54 52 -79 37 -32 46 -35 102 -35 68 0 110 21 149 73 19 25 21 42 21
145 0 124 1 122 -65 237 -13 22 -34 60 -48 85 -14 25 -33 57 -43 72 -11 14
-19 28 -19 31 0 2 -24 44 -52 93 -50 84 -53 93 -52 153 1 62 3 66 39 98 54 47
104 46 152 -2 35 -35 36 -38 30 -95 -4 -43 -1 -62 9 -70 24 -21 34 0 34 73 0
66 -3 76 -31 110 -44 53 -135 87 -154 57z"></path>
<path d="M2214 1666 c-11 -30 7 -38 76 -35 38 2 72 1 75 -3 3 -3 7 -237 8
-519 2 -507 2 -514 22 -514 20 0 20 7 22 514 1 282 5 516 8 519 3 3 38 6 78 6
65 1 72 3 72 21 0 19 -8 20 -178 23 -149 2 -178 0 -183 -12z"></path>
<path d="M914 1651 c-2 -2 -4 -109 -4 -236 0 -230 0 -233 -22 -249 l-23 -16
23 -16 c22 -16 22 -18 22 -275 0 -255 0 -259 21 -259 20 0 20 4 18 263 l-2
262 85 2 c81 2 87 1 111 -25 l27 -28 2 -239 c3 -229 4 -240 22 -240 19 0 19 9
17 239 -3 243 -4 252 -43 307 -9 13 -6 23 16 52 27 36 28 37 24 174 -3 123 -6
143 -27 186 -36 69 -76 91 -179 97 -46 3 -86 3 -88 1z m187 -68 c54 -46 69
-92 69 -225 0 -116 0 -118 -29 -150 -29 -32 -31 -33 -111 -33 l-81 0 0 213 c0
116 1 214 1 217 0 3 27 5 59 5 50 0 65 -4 92 -27z"></path>
<path d="M3596 1642 c-3 -5 -6 -245 -6 -533 l-1 -524 128 0 c121 0 128 1 128
20 0 19 -7 20 -100 20 -55 1 -106 4 -113 9 -9 5 -12 120 -12 506 0 454 -4 534
-24 502z"></path>
<path d="M1389 1633 c0 -5 0 -110 1 -235 1 -220 0 -227 -20 -233 -26 -8 -26
-31 0 -45 20 -11 21 -19 19 -267 0 -145 3 -259 8 -264 5 -5 72 -8 149 -7 131
3 139 4 139 23 0 19 -8 20 -130 25 l-130 5 0 240 0 240 85 5 c77 5 85 7 85 25
0 18 -7 20 -85 20 l-85 0 -3 209 c-1 117 2 214 7 219 5 5 64 9 132 10 103 2
124 5 124 17 0 13 -24 15 -147 18 -82 1 -148 -1 -149 -5z"></path>
<path d="M2768 1607 c-79 -47 -75 -23 -76 -472 -1 -448 0 -459 61 -509 34 -27
46 -31 102 -31 73 0 109 20 137 76 15 30 17 79 18 446 0 264 -4 414 -10 418
-5 3 -10 15 -10 25 0 12 -16 30 -40 45 -52 33 -128 33 -182 2z m163 -46 l29
-29 0 -420 0 -420 -31 -31 c-50 -51 -130 -39 -169 25 -19 30 -20 51 -21 434
-1 445 -4 425 66 456 51 23 93 17 126 -15z"></path>
<path d="M3205 1615 c-16 -7 -43 -27 -58 -43 l-28 -29 1 -422 c0 -231 4 -431
9 -443 31 -81 173 -114 245 -57 54 43 56 57 56 488 0 460 -3 475 -77 506 -43
18 -107 18 -148 0z m146 -56 l29 -31 0 -418 0 -418 -31 -31 c-37 -37 -87 -41
-136 -11 -62 38 -64 51 -62 481 l1 387 24 23 c33 31 71 47 112 48 26 1 41 -7
63 -30z"></path>
<path d="M1964 295 c-3 -7 -4 -34 -2 -61 l3 -49 43 -3 c33 -2 42 0 42 12 0 11
-10 16 -30 16 -34 0 -40 15 -10 23 11 3 20 10 20 16 0 6 -9 11 -20 11 -11 0
-20 5 -20 10 0 6 12 10 26 10 38 0 24 24 -15 26 -18 1 -35 -4 -37 -11z"></path>
<path d="M2795 301 c-27 -6 -31 -11 -36 -54 -6 -56 5 -70 53 -65 38 4 41 22 3
26 -30 4 -33 18 -5 25 11 3 20 10 20 16 0 6 -9 11 -20 11 -11 0 -20 5 -20 10
0 6 11 10 25 10 16 0 25 6 25 15 0 8 -3 14 -7 14 -5 -1 -21 -4 -38 -8z"></path>
<path d="M3331 301 c-34 -6 -35 -7 -36 -54 -1 -56 11 -70 57 -65 42 4 43 22 1
26 -37 4 -44 19 -11 24 28 4 36 28 9 28 -31 0 -25 18 7 22 15 2 26 7 25 13 -2
12 -11 14 -52 6z"></path>
<path d="M3895 301 c-26 -5 -30 -12 -37 -50 -10 -56 3 -73 50 -69 49 4 55 28
8 28 -41 0 -48 15 -11 24 30 8 33 26 5 26 -11 0 -20 5 -20 10 0 6 11 10 25 10
16 0 25 6 25 15 0 8 -3 14 -7 14 -5 -1 -21 -4 -38 -8z"></path>
<path d="M4535 299 c-3 -3 5 -15 16 -25 13 -12 19 -28 17 -48 -2 -22 2 -31 15
-34 14 -3 17 4 17 36 0 22 3 47 6 55 4 11 -4 16 -31 19 -20 2 -38 1 -40 -3z"></path>
<path d="M1655 259 c-15 -22 -29 -47 -32 -55 -7 -19 17 -18 45 2 22 15 25 15
47 -6 21 -20 25 -21 31 -7 5 14 -48 107 -61 107 -3 0 -16 -18 -30 -41z"></path>
<path d="M1837 293 c-3 -4 -4 -30 -3 -58 1 -48 2 -50 32 -53 44 -4 64 22 55
73 -6 37 -9 40 -43 43 -20 2 -38 -1 -41 -5z m53 -17 c0 -11 -19 -15 -25 -6 -3
5 1 10 9 10 9 0 16 -2 16 -4z m5 -45 c7 -12 -12 -24 -25 -16 -11 7 -4 25 10
25 5 0 11 -4 15 -9z"></path>
<path d="M2070 291 c0 -5 7 -11 15 -15 10 -3 15 -19 15 -45 0 -22 4 -42 9 -45
14 -9 33 21 27 42 -3 10 1 27 9 38 22 30 18 34 -30 34 -25 0 -45 -4 -45 -9z"></path>
<path d="M2200 292 c0 -4 5 -13 12 -20 7 -7 12 -27 13 -45 0 -21 5 -33 16 -35
13 -2 18 6 21 35 3 21 8 46 12 56 7 15 2 17 -33 17 -23 0 -41 -4 -41 -8z"></path>
<path d="M2319 298 c-1 -2 -3 -24 -4 -50 -3 -56 10 -71 57 -66 38 4 41 22 3
26 -33 4 -32 15 3 29 27 11 27 11 5 18 -26 8 -31 25 -8 25 8 0 15 5 15 10 0 8
-67 15 -71 8z"></path>
<path d="M2447 292 c-8 -12 -12 -91 -5 -97 3 -4 16 -1 28 5 18 9 25 8 40 -5
22 -20 47 -11 29 11 -6 8 -8 25 -5 40 4 15 2 32 -5 40 -12 15 -74 20 -82 6z
m53 -32 c0 -11 -7 -20 -15 -20 -15 0 -21 21 -8 33 12 13 23 7 23 -13z"></path>
<path d="M2637 293 c-4 -3 -7 -28 -7 -55 0 -35 4 -48 14 -48 8 0 16 6 19 13 3
10 9 10 26 0 11 -7 24 -13 29 -13 11 0 11 83 0 98 -11 13 -70 17 -81 5z m58
-34 c0 -7 -8 -15 -17 -17 -18 -3 -25 18 -11 32 10 10 28 1 28 -15z"></path>
<path d="M2881 287 c-8 -11 -5 -19 15 -38 l25 -23 -23 -18 c-21 -15 -21 -17
-5 -24 23 -8 67 11 67 29 0 8 -9 22 -20 32 -15 13 -17 22 -9 36 8 16 6 19 -14
19 -14 0 -30 -6 -36 -13z"></path>
<path d="M2980 256 c0 -47 24 -76 60 -76 30 0 62 45 58 81 -5 50 -32 45 -38
-6 -4 -32 -9 -40 -25 -40 -16 0 -21 8 -23 43 -2 28 -8 42 -18 42 -10 0 -14
-12 -14 -44z"></path>
<path d="M3734 286 c-3 -7 -4 -33 -2 -57 3 -43 4 -44 40 -47 27 -2 39 2 46 15
11 21 10 72 -1 91 -11 17 -76 16 -83 -2z m56 -16 c0 -5 -4 -10 -10 -10 -5 0
-10 5 -10 10 0 6 5 10 10 10 6 0 10 -4 10 -10z m5 -39 c7 -12 -12 -24 -25 -16
-11 7 -4 25 10 25 5 0 11 -4 15 -9z"></path>
<path d="M3980 291 c0 -5 6 -11 14 -14 9 -4 16 -23 18 -49 4 -56 22 -56 26 1
3 33 8 44 23 48 36 10 19 23 -31 23 -27 0 -50 -4 -50 -9z"></path>
<path d="M4110 292 c0 -4 4 -12 9 -17 5 -6 11 -28 13 -50 4 -48 22 -49 26 -1
2 19 10 40 18 46 24 21 16 30 -26 30 -22 0 -40 -4 -40 -8z"></path>
<path d="M4224 286 c-3 -7 -4 -33 -2 -57 3 -44 3 -44 46 -47 33 -2 42 0 42 12
0 10 -9 16 -25 16 -30 0 -33 16 -5 23 11 3 20 10 20 16 0 6 -9 11 -20 11 -11
0 -20 5 -20 10 0 6 9 10 19 10 11 0 23 5 26 10 4 6 -10 10 -35 10 -25 0 -43
-5 -46 -14z"></path>
<path d="M4347 294 c-9 -9 -9 -88 -1 -97 4 -3 15 -2 26 4 15 8 24 7 39 -7 22
-20 48 -6 33 18 -5 7 -9 29 -9 48 0 34 -1 35 -40 38 -23 2 -44 0 -48 -4z m59
-25 c10 -17 -13 -36 -27 -22 -12 12 -4 33 11 33 5 0 12 -5 16 -11z"></path>
<path d="M4657 282 c-25 -27 -21 -67 8 -86 33 -22 67 -20 99 5 52 41 22 99
-51 99 -26 0 -46 -6 -56 -18z m84 -21 c20 -16 21 -21 10 -35 -17 -20 -55 -21
-71 -1 -10 13 -10 19 5 35 22 25 27 25 56 1z"></path>
<path d="M4997 293 c-9 -8 -9 -88 -1 -96 4 -3 16 -2 26 4 14 8 23 8 31 0 6 -6
16 -11 22 -11 13 0 16 81 3 98 -11 13 -70 17 -81 5z m58 -23 c10 -16 -16 -43
-28 -31 -11 11 -2 41 12 41 5 0 13 -5 16 -10z"></path>
<path d="M5137 294 c-9 -9 -9 -88 0 -97 3 -4 12 -2 20 5 10 8 17 8 25 0 16
-16 51 -16 42 0 -5 7 -8 31 -9 53 0 38 -1 40 -35 43 -20 2 -39 0 -43 -4z m45
-46 c-15 -15 -26 -4 -18 18 5 13 9 15 18 6 9 -9 9 -15 0 -24z"></path>
<path d="M5267 282 c-54 -59 33 -134 101 -86 27 19 29 64 4 87 -25 23 -85 22
-105 -1z m89 -27 c8 -19 -13 -45 -36 -45 -23 0 -44 26 -36 45 3 9 18 15 36 15
18 0 33 -6 36 -15z"></path>
<path d="M5415 288 c-4 -9 5 -34 20 -58 l27 -42 22 21 23 21 18 -20 19 -21 33
38 c18 21 32 43 33 50 0 26 -23 24 -45 -3 l-23 -29 -22 20 c-22 20 -22 20 -37
0 -14 -20 -15 -19 -38 10 -20 24 -25 26 -30 13z"></path>
<path d="M3137 280 c-3 -8 -8 -32 -11 -52 -3 -29 -1 -38 10 -38 8 0 14 7 14
15 0 18 4 19 30 3 15 -10 22 -10 32 0 16 16 28 15 28 -3 0 -8 7 -15 15 -15 11
0 15 12 15 45 0 50 -15 58 -45 25 -24 -27 -35 -25 -61 8 -17 21 -24 24 -27 12z"></path>
<path d="M3570 279 c0 -6 -11 -25 -25 -43 -14 -18 -25 -36 -25 -39 0 -13 34
-7 52 10 17 15 19 15 36 0 18 -16 52 -23 52 -11 0 3 -14 25 -30 50 -29 41 -60
58 -60 33z"></path>
<path d="M4818 283 c-9 -19 -2 -87 10 -91 7 -2 12 5 12 18 0 22 1 22 26 5 24
-15 27 -15 44 0 17 16 19 15 30 -5 17 -31 28 -13 22 38 -5 48 -22 54 -46 17
-9 -14 -23 -25 -30 -25 -8 0 -21 11 -30 25 -16 25 -32 32 -38 18z"></path>
<path d="M3405 200 c-8 -12 20 -24 35 -15 6 3 8 11 5 16 -8 12 -32 12 -40 -1z"></path>
</g>
</svg>